# xmcd
#
# Track frame offsets: 
#        150
#        17332
#        33270
#        51391
#        66982
#        84331
#        99506
#        116448
#        133324
#        154259
#        171849
#
# Disc length: 2530 seconds
#
# Revision: 0
# Processed by: cddbd v1.5.2PL0 Copyright (c) Steve Scherf et al.
# Submitted via: ExactAudioCopy v0.99pb4
#
DISCID=8c09e00b
DTITLE=Lionesse - Year Of The Lionesse
DYEAR=2008
DGENRE=R&B
TTITLE0=What U Know About Me
TTITLE1=Don't Stop
TTITLE2=Take It 2 Da Floor
TTITLE3=Me Or My Money
TTITLE4=Can't Let U Go
TTITLE5=Do Me This Way
TTITLE6=Anutha Guy
TTITLE7=Get Down
TTITLE8=Like That
TTITLE9=Make It Official
TTITLE10=Love Em and Leave Em
EXTD=
EXTT0=
EXTT1=
EXTT2=
EXTT3=
EXTT4=
EXTT5=
EXTT6=
EXTT7=
EXTT8=
EXTT9=
EXTT10=
PLAYORDER=
